<svg width="490" height="52" viewBox="0 0 49 52" fill="none" xmlns="http://www.w3.org/2000/svg">
  <g filter="url(#filter0_ddi_10_75)">
    <path d="M45 23.5C45 34.8218 35.8218 44 24.5 44C13.1782 44 4 34.8218 4 23.5C4 12.1782 13.1782 3 24.5 3C35.8218 3 45 12.1782 45 23.5Z" fill="#FAFF00"/>
    <path d="M34.0667 22.8167C34.0667 28.4776 29.4776 33.0667 23.8167 33.0667C18.1557 33.0667 13.5667 28.4776 13.5667 22.8167C13.5667 17.1557 18.1557 12.5667 23.8167 12.5667C29.4776 12.5667 34.0667 17.1557 34.0667 22.8167Z" fill="#FF0202"/>
    <path d="M44.75 23.5C44.75 34.6838 35.6838 43.75 24.5 43.75C13.3162 43.75 4.25 34.6838 4.25 23.5C4.25 12.3162 13.3162 3.25 24.5 3.25C35.6838 3.25 44.75 12.3162 44.75 23.5ZM33.8167 22.8167C33.8167 28.3395 29.3395 32.8167 23.8167 32.8167C18.2938 32.8167 13.8167 28.3395 13.8167 22.8167C13.8167 17.2938 18.2938 12.8167 23.8167 12.8167C29.3395 12.8167 33.8167 17.2938 33.8167 22.8167ZM23.8167 33.3167C29.6157 33.3167 34.3167 28.6157 34.3167 22.8167C34.3167 17.0177 29.6157 12.3167 23.8167 12.3167C18.0177 12.3167 13.3167 17.0177 13.3167 22.8167C13.3167 28.6157 18.0177 33.3167 23.8167 33.3167Z" stroke="black" stroke-width="0.5"/>
  </g>
  <path d="M21.5 24C25.9 15.6 31 20.5 33 24M21.5 24L15 27L24 24M21.5 24L27.5 32M33 24H24M33 24L15 19.5L30 14M24 24L21.5 14" stroke="black"/>
  <g filter="url(#filter1_f_10_75)">
    <path d="M9.31239 33.5L24.5 5.06139L39.6876 33.5H9.31239Z" stroke="black"/>
  </g>
  <defs>
    <filter id="filter0_ddi_10_75" x="0" y="3" width="49" height="49" filterUnits="userSpaceOnUse" color-interpolation-filters="sRGB">
      <feFlood flood-opacity="0" result="BackgroundImageFix"/>
      <feColorMatrix in="SourceAlpha" type="matrix" values="0 0 0 0 0 0 0 0 0 0 0 0 0 0 0 0 0 0 127 0" result="hardAlpha"/>
      <feOffset dy="4"/>
      <feGaussianBlur stdDeviation="2"/>
      <feComposite in2="hardAlpha" operator="out"/>
      <feColorMatrix type="matrix" values="0 0 0 0 0 0 0 0 0 0 0 0 0 0 0 0 0 0 0.25 0"/>
      <feBlend mode="normal" in2="BackgroundImageFix" result="effect1_dropShadow_10_75"/>
      <feColorMatrix in="SourceAlpha" type="matrix" values="0 0 0 0 0 0 0 0 0 0 0 0 0 0 0 0 0 0 127 0" result="hardAlpha"/>
      <feOffset dy="4"/>
      <feGaussianBlur stdDeviation="2"/>
      <feComposite in2="hardAlpha" operator="out"/>
      <feColorMatrix type="matrix" values="0 0 0 0 0 0 0 0 0 0 0 0 0 0 0 0 0 0 0.25 0"/>
      <feBlend mode="normal" in2="effect1_dropShadow_10_75" result="effect2_dropShadow_10_75"/>
      <feBlend mode="normal" in="SourceGraphic" in2="effect2_dropShadow_10_75" result="shape"/>
      <feColorMatrix in="SourceAlpha" type="matrix" values="0 0 0 0 0 0 0 0 0 0 0 0 0 0 0 0 0 0 127 0" result="hardAlpha"/>
      <feOffset dy="4"/>
      <feGaussianBlur stdDeviation="2"/>
      <feComposite in2="hardAlpha" operator="arithmetic" k2="-1" k3="1"/>
      <feColorMatrix type="matrix" values="0 0 0 0 0 0 0 0 0 0 0 0 0 0 0 0 0 0 0.25 0"/>
      <feBlend mode="normal" in2="shape" result="effect3_innerShadow_10_75"/>
    </filter>
    <filter id="filter1_f_10_75" x="4.47852" y="0" width="40.043" height="38" filterUnits="userSpaceOnUse" color-interpolation-filters="sRGB">
      <feFlood flood-opacity="0" result="BackgroundImageFix"/>
      <feBlend mode="normal" in="SourceGraphic" in2="BackgroundImageFix" result="shape"/>
      <feGaussianBlur stdDeviation="2" result="effect1_foregroundBlur_10_75"/>
    </filter>
  </defs>
</svg>