<svg width="171" height="50" viewBox="0 0 171 50" fill="none" xmlns="http://www.w3.org/2000/svg">
  <g filter="url(#filter0_di_10_40)">
    <path d="M14.432 28.736C13.3653 28.736 12.384 28.5227 11.488 28.096C10.592 27.6267 9.80267 27.0293 9.12 26.304C8.43733 25.536 7.88267 24.6827 7.456 23.744C7.072 22.8053 6.88 21.8027 6.88 20.736C6.88 19.5413 7.136 18.4107 7.648 17.344C8.16 16.2347 8.864 15.2747 9.76 14.464C10.656 13.6533 11.68 12.992 12.832 12.48C14.0267 11.968 15.2427 11.712 16.48 11.712C18.1867 11.712 19.7867 12.16 21.28 13.056C22.816 13.952 24.032 14.976 24.928 16.128V4.672H4V2.048H30.304V4.672H27.424V41.856H24.928V22.72C24.7573 21.6533 24.4587 20.6293 24.032 19.648C23.648 18.6667 23.0933 17.7707 22.368 16.96C21.6427 16.1493 20.768 15.5093 19.744 15.04C18.7627 14.5707 17.6533 14.336 16.416 14.336C15.5627 14.336 14.7307 14.5067 13.92 14.848C13.1093 15.1467 12.384 15.5947 11.744 16.192C11.104 16.7467 10.5707 17.4293 10.144 18.24C9.76 19.008 9.568 19.84 9.568 20.736C9.568 21.376 9.67467 22.0373 9.888 22.72C10.1013 23.36 10.4213 23.936 10.848 24.448C11.2747 24.96 11.7867 25.3867 12.384 25.728C13.024 26.0267 13.728 26.176 14.496 26.176C15.4773 26.176 16.3733 25.8347 17.184 25.152C18.0373 24.4267 18.464 23.5307 18.464 22.464C18.464 22.2507 18.4213 21.9947 18.336 21.696C18.2507 21.3547 18.1653 21.1413 18.08 21.056V21.184C18.08 22.1227 17.7387 22.9333 17.056 23.616C16.3733 24.2987 15.5627 24.64 14.624 24.64C13.6427 24.64 12.8107 24.2987 12.128 23.616C11.4453 22.9333 11.104 22.1227 11.104 21.184C11.104 20.032 11.5733 19.0507 12.512 18.24C13.4933 17.3867 14.5387 16.96 15.648 16.96C16.5013 16.96 17.248 17.1307 17.888 17.472C18.5707 17.8133 19.1253 18.2613 19.552 18.816C19.9787 19.328 20.32 19.9253 20.576 20.608C20.832 21.248 20.96 21.888 20.96 22.528C20.96 24.2773 20.3413 25.7493 19.104 26.944C17.8667 28.1387 16.3093 28.736 14.432 28.736Z" fill="#FFFF00"/>
    <path d="M42.12 16.128C41.992 16.8107 41.5867 17.408 40.904 17.92C40.264 18.432 39.624 18.688 38.984 18.688C38.0027 18.688 37.192 18.3893 36.552 17.792C35.912 17.152 35.592 16.384 35.592 15.488C35.592 14.3787 35.9973 13.44 36.808 12.672C37.6613 11.904 38.7067 11.52 39.944 11.52C40.712 11.52 41.3947 11.6907 41.992 12.032C42.5893 12.3307 43.08 12.7147 43.464 13.184C43.8907 13.6533 44.2107 14.1867 44.424 14.784C44.6373 15.3813 44.744 15.9787 44.744 16.576C44.744 17.4293 44.5733 18.1973 44.232 18.88C43.9333 19.5627 43.5067 20.1813 42.952 20.736C42.3973 21.248 41.7573 21.6533 41.032 21.952C40.3067 22.2507 39.5387 22.4 38.728 22.4C37.7467 22.4 36.8293 22.1867 35.976 21.76C35.1653 21.3333 34.44 20.7787 33.8 20.096C33.2027 19.4133 32.7333 18.6453 32.392 17.792C32.0507 16.896 31.88 16 31.88 15.104C31.88 13.9093 32.1147 12.8 32.584 11.776C33.096 10.752 33.7573 9.87733 34.568 9.152C35.4213 8.384 36.36 7.808 37.384 7.424C38.4507 6.99733 39.496 6.784 40.52 6.784C41.9707 6.784 43.272 7.08267 44.424 7.68C45.6187 8.23467 46.6427 9.00267 47.496 9.984C48.3493 10.9227 49.032 11.9893 49.544 13.184C50.056 14.336 50.376 15.552 50.504 16.832L48.008 16.96C47.88 16.0213 47.624 15.104 47.24 14.208C46.856 13.312 46.344 12.5227 45.704 11.84C45.064 11.1147 44.3173 10.5387 43.464 10.112C42.6107 9.68533 41.6507 9.472 40.584 9.472C39.8587 9.472 39.1333 9.62133 38.408 9.92C37.6827 10.2187 37.0213 10.624 36.424 11.136C35.8267 11.648 35.3573 12.2453 35.016 12.928C34.6747 13.568 34.504 14.2933 34.504 15.104C34.504 16.2987 34.8667 17.3867 35.592 18.368C36.36 19.3067 37.448 19.776 38.856 19.776C39.9227 19.776 40.7333 19.4347 41.288 18.752C41.8853 18.0693 42.184 17.3653 42.184 16.64C42.184 16.384 42.1627 16.2133 42.12 16.128ZM44.872 4.672H29V2.048H44.872V4.672Z" fill="#FFFF00"/>
    <path d="M72.2345 39.872C70.6558 39.872 69.2052 39.5307 67.8825 38.848C66.6025 38.1227 65.5145 37.2267 64.6185 36.16C63.7225 35.0933 63.0185 33.8987 62.5065 32.576C62.0372 31.2533 61.8025 29.9733 61.8025 28.736C61.8025 27.1147 62.1652 25.6 62.8905 24.192C63.6158 22.7413 64.5118 21.4613 65.5785 20.352C66.6452 19.2 67.7758 18.1973 68.9705 17.344C70.2078 16.4907 71.3385 15.808 72.3625 15.296L69.5465 12.544C66.2185 15.7013 62.9758 18.7947 59.8185 21.824C56.6612 24.8533 53.4398 27.9467 50.1545 31.104L47.9145 33.216V4.672H43.5625V2.048H79.6585V4.672H50.5385V27.136L55.7225 22.08C59.9465 18.0267 64.2772 13.9307 68.7145 9.792L69.6105 8.96L76.8425 16.064L75.1145 16.832C74.3465 17.1733 73.3438 17.6853 72.1065 18.368C70.9118 19.0507 69.7385 19.904 68.5865 20.928C67.4345 21.952 66.4532 23.1253 65.6425 24.448C64.8318 25.7707 64.4265 27.2213 64.4265 28.8C64.4265 29.7387 64.5972 30.72 64.9385 31.744C65.3225 32.7253 65.8558 33.6213 66.5385 34.432C67.2638 35.2427 68.0958 35.9253 69.0345 36.48C70.0158 36.992 71.1038 37.248 72.2985 37.248C72.8958 37.248 73.5145 37.1413 74.1545 36.928C74.8372 36.7147 75.4345 36.4373 75.9465 36.096C76.5012 35.712 76.9492 35.2427 77.2905 34.688C77.6318 34.1333 77.8025 33.536 77.8025 32.896C77.8025 31.744 77.3545 30.7627 76.4585 29.952C75.6052 29.1413 74.6665 28.736 73.6425 28.736C72.6612 28.736 71.8505 29.056 71.2105 29.696C71.5945 29.6107 71.9358 29.568 72.2345 29.568C73.1305 29.568 73.8772 29.888 74.4745 30.528C75.1145 31.1253 75.4345 31.872 75.4345 32.768C75.4345 33.664 75.1145 34.432 74.4745 35.072C73.8772 35.712 73.1305 36.032 72.2345 36.032C71.0398 36.032 70.0372 35.584 69.2265 34.688C68.4585 33.7493 68.0745 32.64 68.0745 31.36C68.0745 29.6533 68.6292 28.352 69.7385 27.456C70.8905 26.56 72.1492 26.112 73.5145 26.112C74.4105 26.112 75.2638 26.2827 76.0745 26.624C76.9278 26.9653 77.6532 27.4347 78.2505 28.032C78.8905 28.6293 79.4025 29.3547 79.7865 30.208C80.2132 31.0613 80.4265 31.9787 80.4265 32.96C80.4265 34.0693 80.1705 35.0507 79.6585 35.904C79.1465 36.7573 78.4638 37.4827 77.6105 38.08C76.7998 38.6773 75.9038 39.1253 74.9225 39.424C73.9838 39.7227 73.0878 39.872 72.2345 39.872Z" fill="#FFFF00"/>
    <path d="M94.759 23.68C94.5457 24.704 94.0337 25.5573 93.223 26.24C92.455 26.9227 91.5803 27.264 90.599 27.264C89.319 27.264 88.2737 26.8587 87.463 26.048C86.695 25.1947 86.311 24.1707 86.311 22.976C86.311 21.696 86.823 20.5867 87.847 19.648C88.871 18.7093 90.087 18.24 91.495 18.24C92.3057 18.24 93.0737 18.4107 93.799 18.752C94.567 19.0933 95.2283 19.5627 95.783 20.16C96.3377 20.7573 96.7643 21.44 97.063 22.208C97.4043 22.976 97.575 23.808 97.575 24.704C97.575 25.856 97.319 26.88 96.807 27.776C96.295 28.672 95.655 29.4187 94.887 30.016C94.119 30.6133 93.287 31.0613 92.391 31.36C91.495 31.6587 90.6843 31.808 89.959 31.808C88.6363 31.808 87.4417 31.5307 86.375 30.976C85.3083 30.3787 84.391 29.632 83.623 28.736C82.8977 27.84 82.3217 26.8587 81.895 25.792C81.511 24.6827 81.319 23.5947 81.319 22.528C81.319 20.992 81.6603 19.6053 82.343 18.368C83.0257 17.088 83.9003 16 84.967 15.104C86.0337 14.1653 87.2283 13.44 88.551 12.928C89.9163 12.416 91.2603 12.16 92.583 12.16C94.4603 12.16 96.2737 12.672 98.023 13.696C99.815 14.72 101.287 15.9573 102.439 17.408C103.89 16.256 105.575 15.68 107.495 15.68C109.244 15.68 110.802 16.1493 112.167 17.088L112.999 17.856V4.672H78.311V2.048H118.503V4.672H115.623V41.856H112.999V23.36L112.743 23.296C112.743 22.016 112.252 20.864 111.271 19.84C110.332 18.816 109.074 18.304 107.495 18.304C106.172 18.304 104.935 18.7947 103.783 19.776C102.674 20.7147 101.991 21.9093 101.735 23.36L101.607 24.32L99.047 24.128C99.1323 22.464 99.687 20.8427 100.711 19.264C99.7297 17.984 98.4923 16.9173 96.999 16.064C95.5057 15.2107 93.991 14.784 92.455 14.784C91.5163 14.784 90.535 14.976 89.511 15.36C88.487 15.744 87.5483 16.2773 86.695 16.96C85.8843 17.6427 85.223 18.4747 84.711 19.456C84.199 20.4373 83.943 21.4827 83.943 22.592C83.943 23.36 84.0923 24.128 84.391 24.896C84.6897 25.6213 85.095 26.304 85.607 26.944C86.119 27.584 86.7377 28.1173 87.463 28.544C88.231 28.928 89.063 29.12 89.959 29.12C90.5563 29.12 91.1323 29.0133 91.687 28.8C92.2843 28.5867 92.8177 28.288 93.287 27.904C93.7563 27.52 94.1403 27.0507 94.439 26.496C94.7377 25.8987 94.887 25.2587 94.887 24.576C94.887 24.3627 94.8657 24.1707 94.823 24C94.7803 23.8293 94.759 23.6373 94.759 23.424V23.68Z" fill="#FFFF00"/>
    <path d="M117.25 4.672V2.048H118.53C120.194 2.048 121.474 2.79467 122.37 4.288V0H124.994V2.048H127.874V4.672H124.994V41.856H122.37V12.416C122.327 10.1547 121.751 8.29867 120.642 6.848C119.575 5.39733 118.466 4.672 117.314 4.672H117.25Z" fill="#FFFF00"/>
    <path d="M143.009 23.68C142.796 24.704 142.284 25.5573 141.473 26.24C140.705 26.9227 139.83 27.264 138.849 27.264C137.569 27.264 136.524 26.8587 135.713 26.048C134.945 25.1947 134.561 24.1707 134.561 22.976C134.561 21.696 135.073 20.5867 136.097 19.648C137.121 18.7093 138.337 18.24 139.745 18.24C140.556 18.24 141.324 18.4107 142.049 18.752C142.817 19.0933 143.478 19.5627 144.033 20.16C144.588 20.7573 145.014 21.44 145.313 22.208C145.654 22.976 145.825 23.808 145.825 24.704C145.825 25.856 145.569 26.88 145.057 27.776C144.545 28.672 143.905 29.4187 143.137 30.016C142.369 30.6133 141.537 31.0613 140.641 31.36C139.745 31.6587 138.934 31.808 138.209 31.808C136.886 31.808 135.692 31.5307 134.625 30.976C133.558 30.3787 132.641 29.632 131.873 28.736C131.148 27.84 130.572 26.8587 130.145 25.792C129.761 24.6827 129.569 23.5947 129.569 22.528C129.569 20.992 129.91 19.6053 130.593 18.368C131.276 17.088 132.15 16 133.217 15.104C134.284 14.1653 135.478 13.44 136.801 12.928C138.166 12.416 139.51 12.16 140.833 12.16C142.71 12.16 144.524 12.672 146.273 13.696C148.065 14.72 149.537 15.9573 150.689 17.408C152.14 16.256 153.825 15.68 155.745 15.68C157.494 15.68 159.052 16.1493 160.417 17.088L161.249 17.856V4.672H126.561V2.048H166.753V4.672H163.873V41.856H161.249V23.36L160.993 23.296C160.993 22.016 160.502 20.864 159.521 19.84C158.582 18.816 157.324 18.304 155.745 18.304C154.422 18.304 153.185 18.7947 152.033 19.776C150.924 20.7147 150.241 21.9093 149.985 23.36L149.857 24.32L147.297 24.128C147.382 22.464 147.937 20.8427 148.961 19.264C147.98 17.984 146.742 16.9173 145.249 16.064C143.756 15.2107 142.241 14.784 140.705 14.784C139.766 14.784 138.785 14.976 137.761 15.36C136.737 15.744 135.798 16.2773 134.945 16.96C134.134 17.6427 133.473 18.4747 132.961 19.456C132.449 20.4373 132.193 21.4827 132.193 22.592C132.193 23.36 132.342 24.128 132.641 24.896C132.94 25.6213 133.345 26.304 133.857 26.944C134.369 27.584 134.988 28.1173 135.713 28.544C136.481 28.928 137.313 29.12 138.209 29.12C138.806 29.12 139.382 29.0133 139.937 28.8C140.534 28.5867 141.068 28.288 141.537 27.904C142.006 27.52 142.39 27.0507 142.689 26.496C142.988 25.8987 143.137 25.2587 143.137 24.576C143.137 24.3627 143.116 24.1707 143.073 24C143.03 23.8293 143.009 23.6373 143.009 23.424V23.68Z" fill="#FFFF00"/>
    <path d="M18.64 21.356C18.64 23.289 17.073 24.856 15.14 24.856C13.207 24.856 11.64 23.289 11.64 21.356C11.64 19.423 13.207 17.856 15.14 17.856C17.073 17.856 18.64 19.423 18.64 21.356Z" fill="#FF0000"/>
    <path d="M42.64 15.356C42.64 17.289 41.073 18.856 39.14 18.856C37.207 18.856 35.64 17.289 35.64 15.356C35.64 13.423 37.207 11.856 39.14 11.856C41.073 11.856 42.64 13.423 42.64 15.356Z" fill="#FF0000"/>
    <path d="M75.64 32.856C75.64 34.5129 74.2969 35.856 72.64 35.856C70.9831 35.856 69.64 34.5129 69.64 32.856C69.64 31.1991 70.9831 29.856 72.64 29.856C74.2969 29.856 75.64 31.1991 75.64 32.856Z" fill="#FF0000"/>
    <path d="M94.64 23.356C94.64 25.289 93.073 26.856 91.14 26.856C89.207 26.856 87.64 25.289 87.64 23.356C87.64 21.423 89.207 19.856 91.14 19.856C93.073 19.856 94.64 21.423 94.64 23.356Z" fill="#FF0000"/>
    <path d="M142.64 23.356C142.64 25.289 141.073 26.856 139.14 26.856C137.207 26.856 135.64 25.289 135.64 23.356C135.64 21.423 137.207 19.856 139.14 19.856C141.073 19.856 142.64 21.423 142.64 23.356Z" fill="#FF0000"/>
    <path d="M75.64 32.856C75.64 34.5129 74.2969 35.856 72.64 35.856C70.9831 35.856 69.64 34.5129 69.64 32.856C69.64 31.1991 70.9831 29.856 72.64 29.856C74.2969 29.856 75.64 31.1991 75.64 32.856Z" fill="#FF0000"/>
  </g>
  <defs>
    <filter id="filter0_di_10_40" x="0" y="0" width="170.753" height="49.856" filterUnits="userSpaceOnUse" color-interpolation-filters="sRGB">
      <feFlood flood-opacity="0" result="BackgroundImageFix"/>
      <feColorMatrix in="SourceAlpha" type="matrix" values="0 0 0 0 0 0 0 0 0 0 0 0 0 0 0 0 0 0 127 0" result="hardAlpha"/>
      <feOffset dy="4"/>
      <feGaussianBlur stdDeviation="2"/>
      <feComposite in2="hardAlpha" operator="out"/>
      <feColorMatrix type="matrix" values="0 0 0 0 0 0 0 0 0 0 0 0 0 0 0 0 0 0 0.25 0"/>
      <feBlend mode="normal" in2="BackgroundImageFix" result="effect1_dropShadow_10_40"/>
      <feBlend mode="normal" in="SourceGraphic" in2="effect1_dropShadow_10_40" result="shape"/>
      <feColorMatrix in="SourceAlpha" type="matrix" values="0 0 0 0 0 0 0 0 0 0 0 0 0 0 0 0 0 0 127 0" result="hardAlpha"/>
      <feOffset dy="1"/>
      <feGaussianBlur stdDeviation="1.5"/>
      <feComposite in2="hardAlpha" operator="arithmetic" k2="-1" k3="1"/>
      <feColorMatrix type="matrix" values="0 0 0 0 0 0 0 0 0 0 0 0 0 0 0 0 0 0 0.25 0"/>
      <feBlend mode="normal" in2="shape" result="effect2_innerShadow_10_40"/>
    </filter>
  </defs>
</svg>